<?xml version="1.0" encoding="iso-8859-1"?>
<!-- Generator: Adobe Illustrator 19.0.0, SVG Export Plug-In . SVG Version: 6.00 Build 0)  -->
<svg version="1.1" id="Layer_1" xmlns="http://www.w3.org/2000/svg" xmlns:xlink="http://www.w3.org/1999/xlink" x="0px" y="0px"
	 viewBox="0 0 512.001 512.001" style="enable-background:new 0 0 512.001 512.001;" xml:space="preserve">
<polygon points="145.536,151.36 105.176,31.92 0.673,31.92 0.673,0 128.089,0 175.776,141.136 "/>
<polygon style="fill:#FFFFFF;" points="82.04,132 497.416,132 418.233,354.144 151.208,354.144 "/>
<polygon points="407.385,239.424 247.08,239.424 217.481,188.392 97.969,188.392 97.969,180.392 222.097,180.392 251.689,231.424 
	407.385,231.424 "/>
<circle cx="377.116" cy="450.545" r="61.456"/>
<circle cx="191.747" cy="450.545" r="61.456"/>
<g>
	<circle style="fill:#939393;" cx="191.747" cy="450.545" r="21.456"/>
	<circle style="fill:#939393;" cx="377.116" cy="450.545" r="21.456"/>
</g>
<g>
	<polygon style="fill:#E21B1B;" points="486.352,163.992 385.417,163.992 376.041,189.632 478.345,189.632 	"/>
	<polygon style="fill:#E21B1B;" points="133.92,296.512 234.849,296.512 244.233,322.144 141.929,322.144 	"/>
	<path style="fill:#E21B1B;" d="M488.64,140.56L415.568,345.6H153.705L89.856,140.56H488.64 M511.328,124.56H68.121l73.808,237.04
		h284.92L511.328,124.56z"/>
</g>
<g>
</g>
<g>
</g>
<g>
</g>
<g>
</g>
<g>
</g>
<g>
</g>
<g>
</g>
<g>
</g>
<g>
</g>
<g>
</g>
<g>
</g>
<g>
</g>
<g>
</g>
<g>
</g>
<g>
</g>
</svg>
